<svg width="74" height="74" viewBox="0 0 74 74" fill="none" xmlns="http://www.w3.org/2000/svg">
<rect width="74" height="74" rx="37" fill="white"/>
<path fill-rule="evenodd" clip-rule="evenodd" d="M34.2393 20.5102C33.0054 21.2262 32.3796 21.8815 31.7513 23.1153C31.2991 24.0032 31.2086 24.4237 31.2137 25.6075C31.2238 27.8513 31.9093 28.83 33.0965 28.2961C33.5358 28.0985 33.558 27.9988 33.5595 26.2249C33.5609 24.5841 33.6181 24.2717 34.0374 23.6104C34.3201 23.1644 34.9421 22.6031 35.5681 22.2289C36.4295 21.7139 36.6224 21.5062 36.6224 21.0939C36.6224 20.5225 36.0906 20 35.5087 20C35.294 20 34.7227 20.2296 34.2393 20.5102ZM23.8702 25.5735C22.527 25.9525 22.2619 27.1178 23.3945 27.6636C23.685 27.8035 23.9714 27.8048 24.408 27.6677C24.7427 27.5627 25.4808 27.4767 26.0478 27.4767C27.1856 27.4767 27.9163 27.8537 28.3618 28.6703C28.5012 28.9259 28.7663 29.2195 28.9507 29.3226C29.4567 29.6054 30.3517 29.2533 30.5739 28.6842C30.8428 27.9958 29.8956 26.6753 28.6255 25.9682C27.7995 25.5084 27.4385 25.4236 26.1593 25.39C25.3352 25.3683 24.3052 25.4509 23.8702 25.5735ZM34.7644 28.4563C33.6837 29.3594 33.5449 29.423 32.8666 29.3254C32.0299 29.2049 31.0253 29.585 30.69 30.1487C30.5043 30.4615 30.2742 30.503 28.7283 30.503C27.4268 30.503 26.9503 30.5657 26.873 30.7472C26.7801 30.9651 28.1809 34.5288 28.5789 35.0869C28.857 35.4773 29.1999 35.3333 30.4715 34.2917C31.5301 33.4246 31.8116 33.2815 32.3723 33.3249C33.0965 33.3812 34.1303 32.978 34.4081 32.5311C34.5499 32.3031 34.9631 32.2399 36.4445 32.2196L38.303 32.1941L38.2709 31.7386C38.2533 31.4881 37.8658 30.4268 37.4097 29.3799C36.8217 28.03 36.4862 27.4774 36.2555 27.4794C36.0768 27.4808 35.4057 27.9205 34.7644 28.4563ZM39.2781 29.5389C39.5701 30.5865 39.9645 31.2151 40.3299 31.2151C40.5315 31.2151 41.4119 31.5266 42.2864 31.9074C45.7333 33.4082 48.272 36.39 48.9411 39.7235C49.155 40.7897 49.2331 40.9234 49.673 40.9775C50.3711 41.0635 51.4214 41.8286 51.7859 42.517C52.6104 44.0737 50.9747 45.971 48.9824 45.7688L48.1615 45.6855L47.586 46.6835C46.7078 48.2069 44.3266 50.2591 42.5387 51.0333C38.0195 52.9906 32.8759 52.4708 29.1496 49.6802C28.0413 48.8501 26.7467 47.4105 26.13 46.3221C25.7815 45.7067 25.7133 45.6725 25.0053 45.7581C23.3927 45.9527 21.9944 44.8721 21.9928 43.4302C21.9914 42.225 23.1772 41.006 24.3508 41.006C24.61 41.006 24.7828 40.8639 24.838 40.6054C25.2682 38.5953 25.4859 37.9571 26.1421 36.7815L26.8965 35.4296L26.4829 34.456L26.0691 33.4825L25.6091 33.9953C24.9287 34.7537 23.6152 37.2078 23.2607 38.3825C23.0258 39.1605 22.8231 39.4688 22.422 39.658C21.6385 40.0276 20.6715 41.0015 20.3073 41.7873C19.8927 42.6824 19.8982 44.1186 20.3202 45.068C20.8866 46.3429 22.8034 47.5874 24.2067 47.5915C24.3918 47.5921 24.8329 47.973 25.187 48.4382C26.7075 50.4352 28.705 51.9334 31.2108 52.9564C34.709 54.3847 39.4663 54.3435 43.0802 52.8537C45.2667 51.9524 47.8573 49.8849 49.0192 48.1138C49.2082 47.8256 49.5307 47.5926 49.7404 47.5926C51.2057 47.5926 52.8462 46.5631 53.5501 45.202C54.6092 43.1541 53.7381 40.7197 51.5702 39.6685C51.1782 39.4784 50.8575 39.1856 50.8575 39.0179C50.8575 38.4749 49.8602 36.205 49.125 35.075C47.567 32.6798 44.3119 30.409 41.2686 29.5942C38.939 28.9706 39.1211 28.9758 39.2781 29.5389ZM31.8932 40.4274C31.6605 40.5989 31.4172 41.0357 31.3527 41.3983C31.2507 41.9723 31.3165 42.1305 31.8622 42.6218C32.4079 43.1132 32.5836 43.1724 33.2211 43.0806C34.1228 42.9506 34.6454 42.4079 34.6454 41.6013C34.6454 40.3683 32.954 39.647 31.8932 40.4274ZM39.7874 40.5595C38.6231 41.6753 39.8048 43.4446 41.4637 43.0697C42.1025 42.9254 42.618 42.2039 42.5952 41.4859C42.5567 40.261 40.7281 39.6579 39.7874 40.5595ZM39.8846 46.8577C38.2879 47.4628 35.8559 47.4867 34.2499 46.9131C32.7914 46.3921 32.5933 46.4056 32.7576 47.014C33.1103 48.3187 34.6529 49.5503 36.249 49.8013C37.4336 49.9878 38.9394 49.5948 39.8405 48.864C40.6701 48.1913 41.529 46.7604 41.2378 46.5364C41.146 46.4659 40.5371 46.6105 39.8846 46.8577Z" fill="#DB5B9F"/>
</svg>
