<svg width="45" height="44" viewBox="0 0 45 44" fill="none" xmlns="http://www.w3.org/2000/svg">
<path d="M5.84761 12.7371C5.37902 12.2556 5.00987 11.6864 4.76125 11.0621C4.51262 10.4379 4.38939 9.77068 4.39859 9.09867C4.40779 8.42667 4.54923 7.76301 4.81485 7.14558C5.08047 6.52816 5.46506 5.96906 5.94666 5.50021C6.42826 5.03136 6.99744 4.66195 7.6217 4.41306C8.24597 4.16417 8.91309 4.04068 9.58498 4.04963C10.2569 4.05859 10.9204 4.19982 11.5376 4.46526C12.1548 4.7307 12.7137 5.11515 13.1823 5.59667L37.2682 30.3467L39.8454 40.3335L29.9336 37.4871L5.84761 12.7371Z" stroke="#DB5B9F" stroke-width="4" stroke-linecap="round" stroke-linejoin="round"/>
</svg>
