<svg width="74" height="74" viewBox="0 0 74 74" fill="none" xmlns="http://www.w3.org/2000/svg">
<rect width="74" height="74" rx="37" fill="white"/>
<path fill-rule="evenodd" clip-rule="evenodd" d="M35.5087 20.1881C35.0525 20.2912 34.4223 20.499 34.1083 20.6499C33.0853 21.1408 31.8469 22.3543 31.3438 23.3587C30.932 24.1805 30.8706 24.4849 30.8725 25.6923L30.8746 27.0806L30.2885 27.3627C29.9662 27.5178 29.1291 28.1711 28.4282 28.8146C27.418 29.7422 26.9963 30.2773 26.3928 31.3976C25.4772 33.0973 24.8329 35.3324 24.6935 37.292C24.5948 38.6799 24.5678 38.7594 23.9823 39.3717C23.0112 40.3877 22.7741 41.4971 23.2091 42.9885C23.6686 44.5635 24.7481 46.0311 25.9034 46.6511C26.3943 46.9146 26.8173 47.3644 27.4247 48.2684C30.0131 52.1209 33.1199 53.9951 36.9255 54C38.5806 54.0021 39.8977 53.7206 41.3967 53.0445C42.9037 52.3647 45.3724 50.1116 46.5335 48.3563C47.2143 47.327 47.5809 46.9396 48.2153 46.5784C49.2024 46.0166 50.2179 44.6507 50.6907 43.2493C51.2532 41.5815 51.0591 40.4574 50.0213 39.3717C49.4358 38.7594 49.4088 38.6799 49.3101 37.292C49.0712 33.9307 47.7162 30.8075 45.6655 28.8912C45.0064 28.2752 44.166 27.6191 43.798 27.4332L43.129 27.0952L43.1326 25.6996C43.1358 24.5038 43.0734 24.1804 42.6968 23.4418C41.8556 21.7918 40.2665 20.5756 38.4363 20.1811C37.3067 19.9377 36.6078 19.9393 35.5087 20.1881ZM42.6326 33.1984C43.6141 33.4764 43.9369 33.6643 44.8163 34.4695C45.6586 35.2408 46.0341 35.7644 46.8581 37.3164C47.4136 38.3623 47.8679 39.2937 47.8679 39.3857C47.8679 39.4779 48.0919 39.6745 48.3656 39.8226C49.0483 40.1919 49.4348 41.1562 49.3154 42.1922C49.1369 43.7417 48.0242 45.3728 46.9801 45.6159C46.5605 45.7136 46.3274 45.946 45.7943 46.7987C44.1371 49.4488 42.515 51.0367 40.5392 51.943C38.2339 53.0006 35.8505 53.0059 33.518 51.9587C31.5087 51.0566 30.0924 49.7019 28.3683 47.0335C27.6878 45.9802 27.4358 45.716 27.0166 45.6165C26.3656 45.4622 25.5462 44.6142 24.9973 43.5272C24.2614 42.0693 24.5046 40.3892 25.524 39.8896C25.7909 39.7588 26.097 39.3321 26.3923 38.6796C27.4335 36.3792 28.7429 34.6196 29.9254 33.9315C30.7157 33.4716 31.793 33.139 33.084 32.9561L33.8113 32.8531L33.1255 33.73C32.7482 34.2125 32.4397 34.7531 32.4397 34.9318C32.4397 35.736 33.444 35.8838 33.8632 35.1414C34.2463 34.4633 35.5822 33.1868 36.1723 32.9351C36.9519 32.6026 41.1303 32.7729 42.6326 33.1984ZM30.6752 38.685C30.2976 38.8524 29.9512 39.4112 29.9512 39.8534C29.9512 40.0093 29.7145 40.2253 29.387 40.3683C28.2734 40.8547 27.5584 42.1319 27.8099 43.1861C28.5002 46.0815 33.5289 46.5017 35.0905 43.7945C35.5603 42.9802 35.9661 42.7606 37.0018 42.7606C37.9718 42.7606 38.511 43.0055 38.7618 43.5601C39.4713 45.1286 41.5027 45.9457 43.5659 45.4926C44.5072 45.2857 45.5511 44.5484 45.9814 43.7863C46.6911 42.5296 45.7974 40.7011 44.2597 40.2639C44.0026 40.1908 43.8865 40.0392 43.8865 39.7766C43.8865 39.223 43.0444 38.5072 42.3934 38.5072C41.7481 38.5072 40.9003 39.2232 40.9003 39.7684C40.9003 40.0354 40.7658 40.1923 40.4262 40.3212C40.1654 40.42 39.6722 40.7634 39.3305 41.084C38.7656 41.6136 38.6611 41.6545 38.1881 41.5302C37.5116 41.3525 36.314 41.3557 35.6234 41.537C35.1156 41.6704 35.0359 41.6393 34.5029 41.0991C34.1874 40.7792 33.706 40.433 33.4332 40.3295C33.0731 40.1928 32.9374 40.0392 32.9374 39.7684C32.9374 39.2429 32.088 38.5046 31.4986 38.5176C31.2406 38.5232 30.8701 38.5985 30.6752 38.685ZM33.0187 41.6841C33.2914 41.825 33.6273 42.1249 33.7652 42.3505C33.9886 42.7163 33.9886 42.805 33.7652 43.1708C33.1807 44.1275 31.4325 44.4654 30.1641 43.8667C28.7598 43.2038 28.9489 42.0143 30.5384 41.5142C31.4514 41.227 32.2384 41.2809 33.0187 41.6841ZM43.9823 41.7096C44.7176 42.1185 44.949 42.6567 44.6313 43.2193C43.9837 44.3662 41.445 44.5364 40.4897 43.4971C39.973 42.9346 39.9619 42.589 40.4441 42.0793C41.2283 41.2505 42.8519 41.0808 43.9823 41.7096Z" fill="#DB5B9F"/>
</svg>
