<svg width="51" height="34" viewBox="0 0 51 34" fill="none" xmlns="http://www.w3.org/2000/svg">
<path fill-rule="evenodd" clip-rule="evenodd" d="M0.4278 0.249416C0.317742 0.390484 0.17829 0.618108 0.117841 0.755071C0.0386426 0.934684 0.00797869 4.12895 0.00797869 12.1933C0.00797869 24.421 -0.0177048 23.8736 0.569499 24.1575C0.769498 24.2543 1.82496 24.2827 4.34194 24.2591L7.83664 24.2264L8.12151 23.8539C8.27814 23.6491 8.40637 23.3989 8.40637 23.2979C8.40637 23.197 8.75568 21.7223 9.18253 20.021C11.173 12.089 11.9613 8.35814 12.3757 4.91047C12.4645 4.17104 12.5082 3.43069 12.4727 3.26533C12.1734 1.87312 8.83517 0.7618 3.16919 0.168106C0.88727 -0.071037 0.672819 -0.064651 0.4278 0.249416ZM45.8573 2.51255C42.8314 2.74986 39.7207 3.42373 37.166 4.39558C35.9755 4.84832 35.457 5.27757 35.457 5.81002C35.457 5.97413 35.6737 6.61868 35.9385 7.24226C37.3341 10.5282 40.7383 21.4308 41.6133 25.417C41.6788 25.7153 41.8572 26.0783 42.0478 26.3008L42.371 26.6783H45.854C48.056 26.6783 49.406 26.635 49.5248 26.5608C50.0226 26.2497 50.0077 26.6214 50.0077 14.533C50.0077 2.31834 50.0301 2.82011 49.4733 2.52395C49.1873 2.37171 47.7127 2.36715 45.8573 2.51255ZM24.8765 5.13456C23.6896 5.33961 22.3572 6.32298 20.6047 8.28721C19.4076 9.62901 18.79 10.566 18.2049 11.9284C17.8361 12.7872 17.7542 13.0915 17.7444 13.639L17.7325 14.3049L18.1231 14.5285C18.6778 14.8461 19.6266 14.8971 20.2023 14.6404C20.697 14.4197 21.5063 13.5962 21.9299 12.8824C22.2227 12.3889 22.6876 12.0811 23.1401 12.0811C23.305 12.0811 23.9521 11.8245 24.578 11.5109C25.726 10.9357 26.1408 10.8455 26.7309 11.0431C26.9082 11.1025 28.0575 12.168 29.4678 13.5805C30.805 14.9198 32.3363 16.426 32.8709 16.9278C35.2543 19.1651 37.2599 21.2982 38.6043 23.0257C38.9658 23.49 39.2857 23.8419 39.3152 23.8073C39.434 23.6686 36.1652 13.218 35.079 10.2635L34.4316 8.50297L33.2597 8.02857C32.6152 7.76764 31.0112 7.0647 29.6953 6.46655C26.7311 5.11917 26.0523 4.93157 24.8765 5.13456ZM14.123 7.548C14.0963 7.68918 13.96 8.42041 13.8204 9.17307C13.1952 12.5424 12.055 17.5203 11.2364 20.4539L10.8571 21.8132L11.3375 22.4608C11.6018 22.817 12.1165 23.4369 12.4814 23.8384C13.4374 24.8903 17.0167 28.2202 20.1043 30.9304C23.0819 33.5438 23.5612 33.8446 24.9102 33.9453L25.6426 34L23.8623 31.9072C22.5424 30.3556 22.0664 29.7226 22.0218 29.4595C21.895 28.7127 22.5501 27.9461 23.1879 28.095C23.4135 28.1477 24.0694 28.8389 25.7951 30.843C27.0633 32.3157 28.185 33.5279 28.2878 33.5367C28.7559 33.5766 29.2787 33.4818 29.5265 33.312C29.7673 33.147 30.1836 32.3707 30.1836 32.0869C30.1836 32.0278 29.063 30.6716 27.6934 29.0731C25.771 26.8296 25.19 26.0851 25.1456 25.8092C25.0246 25.056 25.676 24.297 26.3152 24.4462C26.5469 24.5001 27.2856 25.2935 29.4195 27.7799L32.22 31.0428L32.946 30.9884C33.5843 30.9406 33.72 30.889 34.0702 30.5603C34.2891 30.3548 34.495 30.1055 34.5276 30.0063C34.57 29.8776 33.7219 28.8139 31.5605 26.2849C29.6734 24.0768 28.5111 22.6319 28.4729 22.4465C28.4377 22.2756 28.4755 21.9705 28.5616 21.7296C28.7352 21.2446 29.2678 20.9136 29.6848 21.0319C29.8434 21.0768 31.1379 22.4994 33.1167 24.8034C35.954 28.1071 36.3271 28.5029 36.6045 28.5029C37.3146 28.5029 37.8998 27.843 37.8974 27.045C37.896 26.6055 37.5106 25.7005 37.0125 24.9677C36.1083 23.6372 34.8085 22.268 31.2732 18.922C30.1807 17.8879 28.4668 16.265 27.4647 15.3156L25.6426 13.5893L25.3496 13.7634C25.1885 13.8592 25.0347 13.9715 25.0078 14.0131C24.9359 14.1244 24.1337 14.445 23.7277 14.525C23.4634 14.577 23.1928 14.8012 22.6466 15.4205C21.091 17.185 19.4349 17.7095 17.4967 17.0514C16.5274 16.7223 16.0813 16.3388 15.6844 15.4934C15.1567 14.3693 15.3188 12.8046 16.1671 10.8346C16.6053 9.81672 17.484 8.30009 18.0052 7.66204L18.3079 7.29141H16.2398C14.1747 7.29141 14.1717 7.29175 14.123 7.548Z" fill="#DB5B9F"/>
</svg>
