<svg width="45" height="44" viewBox="0 0 45 44" fill="none" xmlns="http://www.w3.org/2000/svg">
<mask id="path-1-inside-1_553_141" fill="white">
<path fill-rule="evenodd" clip-rule="evenodd" d="M23.8017 0.0968405C19.0085 0.955049 15.6627 5.69457 16.1536 10.9307C16.5461 15.1166 19.2256 18.5049 23.0094 19.5997C24.0018 19.8869 25.674 19.9528 26.7553 19.7472C30.599 19.0167 33.5752 15.7463 34.2276 11.5364C34.4036 10.4007 34.2904 8.29924 33.9951 7.21824C33.0518 3.76578 30.597 1.17093 27.4505 0.299803C26.3581 -0.00258788 24.8312 -0.0874976 23.8017 0.0968405ZM26.527 2.00501C28.9249 2.51657 30.8055 4.06847 31.8562 6.40259C33.9339 11.0177 31.5332 16.5831 26.9474 17.7829C25.4829 18.166 23.6034 17.9909 22.2693 17.347C20.1918 16.3444 18.5975 14.2734 18.0181 11.8242C17.7528 10.7028 17.794 8.87027 18.1104 7.71889C19.2096 3.71872 22.8802 1.2269 26.527 2.00501ZM24.4601 4.02772C24.3271 4.17291 24.2182 4.38989 24.2182 4.50984C24.2182 4.66294 24.1167 4.78089 23.8774 4.90535C23.2547 5.22937 22.858 5.65612 22.555 6.32769C22.1723 7.17599 22.1358 8.16056 22.4602 8.889C22.8599 9.78676 23.8564 10.5066 24.8734 10.6321C25.5075 10.7105 26.0232 11.0128 26.3111 11.4752C26.7626 12.2005 26.3881 13.1097 25.5306 13.3695C25.0257 13.5225 24.7612 13.5011 24.4292 13.2801C24.0621 13.0359 23.8798 12.6587 23.7962 11.9699C23.7112 11.2715 23.4531 10.9731 22.9337 10.9731C22.6533 10.9731 22.4988 11.038 22.3233 11.2295C22.1063 11.4663 22.0911 11.5408 22.124 12.2058C22.1857 13.4534 22.8395 14.5682 23.8104 15.0811C24.0347 15.1995 24.2182 15.3622 24.2182 15.4424C24.2182 15.7459 24.6508 16.0797 25.0441 16.0797C25.4415 16.0797 25.8699 15.7451 25.8699 15.4344C25.8699 15.3424 26.1055 15.1641 26.4557 14.9908C27.15 14.6472 27.7342 14.0442 28.0014 13.395C28.2876 12.6997 28.2763 11.4978 27.9772 10.8229C27.5384 9.83332 26.4246 8.96079 25.4173 8.81761C24.6991 8.71557 24.2285 8.48167 24.0705 8.14824C23.7717 7.51763 24.1725 6.69156 24.8825 6.47458C25.5666 6.26561 26.1451 6.68045 26.1451 7.38005C26.1451 8.33078 27.2497 8.72579 27.7025 7.93707C27.8685 7.648 27.84 6.68926 27.6499 6.17109C27.476 5.69677 26.8659 5.07467 26.2796 4.77398C26.0543 4.65833 25.8699 4.49442 25.8699 4.40951C25.8699 4.3247 25.7685 4.14477 25.6446 4.0096C25.3261 3.66195 24.7878 3.67016 24.4601 4.02772ZM39.5874 17.717C38.6732 17.9756 38.3571 18.2526 35.6558 21.1613L33.0087 24.0115L32.7509 23.6703C32.4171 23.2283 31.8897 22.8332 31.2723 22.5625C30.7959 22.3536 30.6126 22.3439 25.9616 22.2815C21.4778 22.2214 21.0872 22.2021 20.3186 22.0028C19.8644 21.885 19.1831 21.7097 18.8046 21.6131C17.8701 21.3746 15.7131 21.3775 14.8258 21.6184C13.966 21.8519 12.919 22.3182 12.1702 22.8015C11.0178 23.545 9.64305 24.9314 8.78265 26.2176C8.67236 26.3826 8.63382 26.3784 8.11503 26.1449C7.38997 25.8186 6.46342 25.8032 5.70992 26.105C5.23948 26.2934 5.01826 26.4963 3.77276 27.8823C2.99944 28.7428 1.83303 30.0643 1.18065 30.8187C-0.468764 32.7264 -0.535654 32.3732 1.99645 35.1287C3.97215 37.2787 4.00334 37.3071 4.38624 37.3071C4.92292 37.3071 5.22471 36.9766 5.22471 36.3887C5.22471 35.9699 5.19562 35.9301 3.66412 34.2589C2.80574 33.3223 2.11417 32.5242 2.1272 32.4855C2.14023 32.4468 3.05183 31.399 4.153 30.157C5.81727 28.2799 6.21595 27.881 6.51572 27.7929C7.27922 27.5686 7.27775 27.5673 11.222 31.7546C13.2212 33.877 14.9024 35.7063 14.9581 35.82C15.1098 36.1292 15.0908 36.817 14.9212 37.157C14.8388 37.3221 13.908 38.4261 12.8527 39.6101L10.934 41.7629L10.3353 41.1371C9.80747 40.5852 9.69379 40.5112 9.3742 40.5112C8.86844 40.5112 8.52793 40.8866 8.52793 41.4441C8.52793 41.8284 8.5784 41.9018 9.51431 42.8789C10.5669 43.9778 10.8723 44.1506 11.3143 43.898C11.445 43.8232 12.605 42.5801 13.8921 41.1356C16.6494 38.0409 16.733 37.9064 16.7373 36.5561C16.7388 36.0605 16.709 35.5628 16.671 35.45C16.5385 35.0569 17.8464 34.9765 25.5487 34.904C31.7236 34.8459 32.5852 34.8189 33.0727 34.6678C33.8557 34.4251 34.8305 33.8998 35.376 33.4265C35.869 32.9987 43.2013 23.6551 43.5554 23.0033C43.6687 22.7948 43.8302 22.3201 43.9143 21.9485C44.1783 20.7808 43.8797 19.6332 43.0642 18.6817C42.2795 17.7664 40.8324 17.3647 39.5874 17.717ZM41.5074 19.711C41.9355 19.9768 42.2942 20.6495 42.2942 21.1863C42.2942 21.3892 42.2014 21.7406 42.0878 21.967C41.8494 22.4423 35.057 31.1777 34.4547 31.7837C34.0318 32.2091 33.4116 32.592 32.7975 32.8069C32.5198 32.9041 30.743 32.9519 25.5028 33.0032C19.1672 33.0653 18.4428 33.0897 17.0258 33.2873L15.4764 33.5036L14.6861 32.6805C11.9501 29.8316 9.99603 27.741 9.99603 27.6631C9.99603 27.5138 10.8593 26.3778 11.385 25.8354C12.5858 24.5967 13.8071 23.84 15.1839 23.4818C16.307 23.1897 17.8047 23.2447 19.1545 23.6279C20.9221 24.1296 21.6244 24.1863 26.0992 24.1889C28.692 24.1904 30.3572 24.2303 30.5748 24.2963C31.353 24.5321 31.9189 25.4682 31.796 26.3164C31.7124 26.8938 31.3597 27.4479 30.92 27.6927C30.576 27.8842 30.3862 27.8949 27.3387 27.8949C23.9178 27.8949 23.62 27.9317 23.3998 28.3806C23.218 28.7512 23.281 29.248 23.5465 29.5378L23.7924 29.806L27.3773 29.7767L30.9623 29.7473L31.5387 29.4569C32.5928 28.9257 33.3486 27.7914 33.5238 26.4777C33.5843 26.0247 33.6663 25.925 36.4321 22.9403C38.3748 20.8439 39.4001 19.8086 39.6622 19.6787C40.2099 19.4074 41.0419 19.4219 41.5074 19.711ZM20.1494 28.2087C19.9181 28.3553 19.7285 28.8872 19.7875 29.224C19.8524 29.5941 20.2238 29.8975 20.6123 29.8975C21.0461 29.8975 21.2746 29.7411 21.4287 29.3388C21.5423 29.042 21.5423 28.9507 21.4287 28.6539C21.3566 28.4657 21.2142 28.2629 21.1123 28.2033C20.8773 28.0662 20.3697 28.0689 20.1494 28.2087ZM6.27991 29.7855C5.85095 29.9079 5.47997 30.1509 5.16617 30.5148C4.68665 31.071 4.54158 31.4729 4.53957 32.2506C4.5381 32.8416 4.58031 33.0354 4.80896 33.487C5.35932 34.5737 6.53618 35.0672 7.60028 34.6576C8.16036 34.4419 8.55665 34.0697 8.8566 33.4776C9.08031 33.036 9.12279 32.8389 9.12132 32.2506C9.11875 31.2468 8.67346 30.4429 7.86949 29.9907C7.48301 29.7733 6.68418 29.6701 6.27991 29.7855ZM7.24335 31.8C7.62377 32.2151 7.36648 32.9014 6.83044 32.9014C6.2944 32.9014 6.03712 32.2151 6.41754 31.8C6.51847 31.6898 6.70428 31.5997 6.83044 31.5997C6.95661 31.5997 7.14241 31.6898 7.24335 31.8ZM6.54205 38.1073C6.24935 38.2362 6.05052 38.6065 6.05052 39.0227C6.05052 39.3122 6.11153 39.4481 6.33285 39.6512C6.7786 40.0606 7.40502 39.9401 7.66313 39.3953C7.82251 39.0591 7.82655 38.8968 7.68423 38.5559C7.49861 38.1112 6.98826 37.9108 6.54205 38.1073Z"/>
</mask>
<path fill-rule="evenodd" clip-rule="evenodd" d="M23.8017 0.0968405C19.0085 0.955049 15.6627 5.69457 16.1536 10.9307C16.5461 15.1166 19.2256 18.5049 23.0094 19.5997C24.0018 19.8869 25.674 19.9528 26.7553 19.7472C30.599 19.0167 33.5752 15.7463 34.2276 11.5364C34.4036 10.4007 34.2904 8.29924 33.9951 7.21824C33.0518 3.76578 30.597 1.17093 27.4505 0.299803C26.3581 -0.00258788 24.8312 -0.0874976 23.8017 0.0968405ZM26.527 2.00501C28.9249 2.51657 30.8055 4.06847 31.8562 6.40259C33.9339 11.0177 31.5332 16.5831 26.9474 17.7829C25.4829 18.166 23.6034 17.9909 22.2693 17.347C20.1918 16.3444 18.5975 14.2734 18.0181 11.8242C17.7528 10.7028 17.794 8.87027 18.1104 7.71889C19.2096 3.71872 22.8802 1.2269 26.527 2.00501ZM24.4601 4.02772C24.3271 4.17291 24.2182 4.38989 24.2182 4.50984C24.2182 4.66294 24.1167 4.78089 23.8774 4.90535C23.2547 5.22937 22.858 5.65612 22.555 6.32769C22.1723 7.17599 22.1358 8.16056 22.4602 8.889C22.8599 9.78676 23.8564 10.5066 24.8734 10.6321C25.5075 10.7105 26.0232 11.0128 26.3111 11.4752C26.7626 12.2005 26.3881 13.1097 25.5306 13.3695C25.0257 13.5225 24.7612 13.5011 24.4292 13.2801C24.0621 13.0359 23.8798 12.6587 23.7962 11.9699C23.7112 11.2715 23.4531 10.9731 22.9337 10.9731C22.6533 10.9731 22.4988 11.038 22.3233 11.2295C22.1063 11.4663 22.0911 11.5408 22.124 12.2058C22.1857 13.4534 22.8395 14.5682 23.8104 15.0811C24.0347 15.1995 24.2182 15.3622 24.2182 15.4424C24.2182 15.7459 24.6508 16.0797 25.0441 16.0797C25.4415 16.0797 25.8699 15.7451 25.8699 15.4344C25.8699 15.3424 26.1055 15.1641 26.4557 14.9908C27.15 14.6472 27.7342 14.0442 28.0014 13.395C28.2876 12.6997 28.2763 11.4978 27.9772 10.8229C27.5384 9.83332 26.4246 8.96079 25.4173 8.81761C24.6991 8.71557 24.2285 8.48167 24.0705 8.14824C23.7717 7.51763 24.1725 6.69156 24.8825 6.47458C25.5666 6.26561 26.1451 6.68045 26.1451 7.38005C26.1451 8.33078 27.2497 8.72579 27.7025 7.93707C27.8685 7.648 27.84 6.68926 27.6499 6.17109C27.476 5.69677 26.8659 5.07467 26.2796 4.77398C26.0543 4.65833 25.8699 4.49442 25.8699 4.40951C25.8699 4.3247 25.7685 4.14477 25.6446 4.0096C25.3261 3.66195 24.7878 3.67016 24.4601 4.02772ZM39.5874 17.717C38.6732 17.9756 38.3571 18.2526 35.6558 21.1613L33.0087 24.0115L32.7509 23.6703C32.4171 23.2283 31.8897 22.8332 31.2723 22.5625C30.7959 22.3536 30.6126 22.3439 25.9616 22.2815C21.4778 22.2214 21.0872 22.2021 20.3186 22.0028C19.8644 21.885 19.1831 21.7097 18.8046 21.6131C17.8701 21.3746 15.7131 21.3775 14.8258 21.6184C13.966 21.8519 12.919 22.3182 12.1702 22.8015C11.0178 23.545 9.64305 24.9314 8.78265 26.2176C8.67236 26.3826 8.63382 26.3784 8.11503 26.1449C7.38997 25.8186 6.46342 25.8032 5.70992 26.105C5.23948 26.2934 5.01826 26.4963 3.77276 27.8823C2.99944 28.7428 1.83303 30.0643 1.18065 30.8187C-0.468764 32.7264 -0.535654 32.3732 1.99645 35.1287C3.97215 37.2787 4.00334 37.3071 4.38624 37.3071C4.92292 37.3071 5.22471 36.9766 5.22471 36.3887C5.22471 35.9699 5.19562 35.9301 3.66412 34.2589C2.80574 33.3223 2.11417 32.5242 2.1272 32.4855C2.14023 32.4468 3.05183 31.399 4.153 30.157C5.81727 28.2799 6.21595 27.881 6.51572 27.7929C7.27922 27.5686 7.27775 27.5673 11.222 31.7546C13.2212 33.877 14.9024 35.7063 14.9581 35.82C15.1098 36.1292 15.0908 36.817 14.9212 37.157C14.8388 37.3221 13.908 38.4261 12.8527 39.6101L10.934 41.7629L10.3353 41.1371C9.80747 40.5852 9.69379 40.5112 9.3742 40.5112C8.86844 40.5112 8.52793 40.8866 8.52793 41.4441C8.52793 41.8284 8.5784 41.9018 9.51431 42.8789C10.5669 43.9778 10.8723 44.1506 11.3143 43.898C11.445 43.8232 12.605 42.5801 13.8921 41.1356C16.6494 38.0409 16.733 37.9064 16.7373 36.5561C16.7388 36.0605 16.709 35.5628 16.671 35.45C16.5385 35.0569 17.8464 34.9765 25.5487 34.904C31.7236 34.8459 32.5852 34.8189 33.0727 34.6678C33.8557 34.4251 34.8305 33.8998 35.376 33.4265C35.869 32.9987 43.2013 23.6551 43.5554 23.0033C43.6687 22.7948 43.8302 22.3201 43.9143 21.9485C44.1783 20.7808 43.8797 19.6332 43.0642 18.6817C42.2795 17.7664 40.8324 17.3647 39.5874 17.717ZM41.5074 19.711C41.9355 19.9768 42.2942 20.6495 42.2942 21.1863C42.2942 21.3892 42.2014 21.7406 42.0878 21.967C41.8494 22.4423 35.057 31.1777 34.4547 31.7837C34.0318 32.2091 33.4116 32.592 32.7975 32.8069C32.5198 32.9041 30.743 32.9519 25.5028 33.0032C19.1672 33.0653 18.4428 33.0897 17.0258 33.2873L15.4764 33.5036L14.6861 32.6805C11.9501 29.8316 9.99603 27.741 9.99603 27.6631C9.99603 27.5138 10.8593 26.3778 11.385 25.8354C12.5858 24.5967 13.8071 23.84 15.1839 23.4818C16.307 23.1897 17.8047 23.2447 19.1545 23.6279C20.9221 24.1296 21.6244 24.1863 26.0992 24.1889C28.692 24.1904 30.3572 24.2303 30.5748 24.2963C31.353 24.5321 31.9189 25.4682 31.796 26.3164C31.7124 26.8938 31.3597 27.4479 30.92 27.6927C30.576 27.8842 30.3862 27.8949 27.3387 27.8949C23.9178 27.8949 23.62 27.9317 23.3998 28.3806C23.218 28.7512 23.281 29.248 23.5465 29.5378L23.7924 29.806L27.3773 29.7767L30.9623 29.7473L31.5387 29.4569C32.5928 28.9257 33.3486 27.7914 33.5238 26.4777C33.5843 26.0247 33.6663 25.925 36.4321 22.9403C38.3748 20.8439 39.4001 19.8086 39.6622 19.6787C40.2099 19.4074 41.0419 19.4219 41.5074 19.711ZM20.1494 28.2087C19.9181 28.3553 19.7285 28.8872 19.7875 29.224C19.8524 29.5941 20.2238 29.8975 20.6123 29.8975C21.0461 29.8975 21.2746 29.7411 21.4287 29.3388C21.5423 29.042 21.5423 28.9507 21.4287 28.6539C21.3566 28.4657 21.2142 28.2629 21.1123 28.2033C20.8773 28.0662 20.3697 28.0689 20.1494 28.2087ZM6.27991 29.7855C5.85095 29.9079 5.47997 30.1509 5.16617 30.5148C4.68665 31.071 4.54158 31.4729 4.53957 32.2506C4.5381 32.8416 4.58031 33.0354 4.80896 33.487C5.35932 34.5737 6.53618 35.0672 7.60028 34.6576C8.16036 34.4419 8.55665 34.0697 8.8566 33.4776C9.08031 33.036 9.12279 32.8389 9.12132 32.2506C9.11875 31.2468 8.67346 30.4429 7.86949 29.9907C7.48301 29.7733 6.68418 29.6701 6.27991 29.7855ZM7.24335 31.8C7.62377 32.2151 7.36648 32.9014 6.83044 32.9014C6.2944 32.9014 6.03712 32.2151 6.41754 31.8C6.51847 31.6898 6.70428 31.5997 6.83044 31.5997C6.95661 31.5997 7.14241 31.6898 7.24335 31.8ZM6.54205 38.1073C6.24935 38.2362 6.05052 38.6065 6.05052 39.0227C6.05052 39.3122 6.11153 39.4481 6.33285 39.6512C6.7786 40.0606 7.40502 39.9401 7.66313 39.3953C7.82251 39.0591 7.82655 38.8968 7.68423 38.5559C7.49861 38.1112 6.98826 37.9108 6.54205 38.1073Z" fill="#DB5B9F" stroke="#DB5B9F" stroke-width="20" mask="url(#path-1-inside-1_553_141)"/>
</svg>
