<svg width="45" height="44" viewBox="0 0 45 44" fill="none" xmlns="http://www.w3.org/2000/svg">
<path d="M25.6745 3.66666H11.0079C10.0354 3.66666 9.10276 4.05296 8.41513 4.7406C7.72749 5.42823 7.34119 6.36086 7.34119 7.33332V36.6667C7.34119 37.6391 7.72749 38.5717 8.41513 39.2594C9.10276 39.947 10.0354 40.3333 11.0079 40.3333H33.0079C33.9803 40.3333 34.9129 39.947 35.6006 39.2594C36.2882 38.5717 36.6745 37.6391 36.6745 36.6667V14.6667L25.6745 3.66666Z" stroke="#DB5B9F" stroke-width="4" stroke-linecap="round" stroke-linejoin="round"/>
<path d="M25.6744 3.66666V14.6667H36.6744" stroke="#DB5B9F" stroke-width="4" stroke-linecap="round" stroke-linejoin="round"/>
<path d="M29.3411 23.8333H14.6744" stroke="#DB5B9F" stroke-width="4" stroke-linecap="round" stroke-linejoin="round"/>
<path d="M29.3411 31.1667H14.6744" stroke="#DB5B9F" stroke-width="4" stroke-linecap="round" stroke-linejoin="round"/>
<path d="M18.3411 16.5H16.5078H14.6744" stroke="#DB5B9F" stroke-width="4" stroke-linecap="round" stroke-linejoin="round"/>
</svg>
