<svg width="44" height="44" viewBox="0 0 44 44" fill="none" xmlns="http://www.w3.org/2000/svg">
<path d="M20.1666 7.33334H7.33329C6.36083 7.33334 5.4282 7.71965 4.74057 8.40729C4.05293 9.09492 3.66663 10.0275 3.66663 11V36.6667C3.66663 37.6391 4.05293 38.5718 4.74057 39.2594C5.4282 39.947 6.36083 40.3333 7.33329 40.3333H33C33.9724 40.3333 34.9051 39.947 35.5927 39.2594C36.2803 38.5718 36.6666 37.6391 36.6666 36.6667V23.8333" stroke="#DB5B9F" stroke-width="4" stroke-linecap="round" stroke-linejoin="round"/>
<path d="M33.9166 4.58333C34.646 3.85399 35.6352 3.44424 36.6666 3.44424C37.6981 3.44424 38.6873 3.85399 39.4166 4.58333C40.146 5.31268 40.5557 6.30188 40.5557 7.33333C40.5557 8.36478 40.146 9.35399 39.4166 10.0833L22 27.5L14.6666 29.3333L16.5 22L33.9166 4.58333Z" stroke="#DB5B9F" stroke-width="4" stroke-linecap="round" stroke-linejoin="round"/>
</svg>
